<svg width="1080" height="1080" viewBox="0 0 1080 1080" fill="none" xmlns="http://www.w3.org/2000/svg">
<rect width="1080" height="1080" fill="#015AFF"/>
<path d="M865.529 675.94C863.245 667.627 859.261 659.782 855.494 650.393C847.211 656.434 840.187 661.561 833.157 666.68C828.833 669.828 824.778 673.471 820.122 676.014C799.838 687.089 777.662 688.643 755.311 687.038C743.389 686.182 731.632 683.015 720.934 681.092C719.123 688.639 718.071 696.951 715.107 704.516C709.907 717.789 701.844 729.463 689.367 736.941C682.321 741.163 679.566 741.08 676.465 735.88C684.22 725.863 692.521 716.206 699.586 705.713C706.657 695.209 709.128 684.165 701.707 671.878C690.586 653.466 677.838 636.52 662.415 621.544C659.868 619.072 658.022 615.873 655.445 613.438C652.745 610.887 649.827 608.301 646.532 606.698C636.963 602.044 627.664 605.87 618.938 609.361C615.884 610.583 612.707 615.545 612.444 619.015C611.089 636.987 605.522 653.406 597.551 669.457C583.084 698.593 559.867 718.095 531.2 731.845C518.305 738.031 504.162 739.507 490.153 740.509C466.221 742.221 442.986 738.897 422.549 725.504C393.635 706.554 379.388 678.899 377.056 644.694C376.914 642.629 375.125 640.675 374.104 638.668C373.65 638.921 373.195 639.173 372.741 639.424C373.458 646.71 374.204 653.993 374.884 661.28C376.123 674.59 378.78 687.973 378.173 701.201C377.393 718.197 376.345 735.454 369.354 751.584C363.51 765.071 358.127 778.762 352.837 792.479C352.195 794.142 352.719 797.033 353.836 798.478C370.149 819.58 384.388 842.375 404.891 860.064C414.144 868.047 421.815 878.066 431.667 885.116C453.45 900.7 475.038 916.864 501.466 924.53C517.338 929.135 532.657 935.847 548.693 939.629C561.41 942.628 574.858 943.849 587.944 943.633C605.818 943.338 623.715 941.42 641.483 939.228C650.727 938.087 659.607 934.179 668.84 932.72C690.971 929.225 711.838 921.806 731.495 911.62C744.746 904.753 757.001 895.773 769.084 886.899C781.782 877.573 794.626 868.149 805.837 857.166C828.293 835.166 843.195 807.505 859.752 781.15C866.008 756.982 878.173 733.844 871.913 707.532C869.427 697.085 868.366 686.275 865.529 675.94ZM570.218 783.534C568.906 787.177 567.137 790.539 566.553 794.097C565.778 798.829 562.801 800.801 558.946 799.986C556.807 799.534 554.582 796.532 553.583 794.175C550.199 786.197 553.463 779.626 558.84 773.696C566.379 765.379 573.554 756.542 585.166 753.701C588.001 753.008 591.235 752.649 593.992 753.328C596.272 753.89 599.789 756.232 599.766 757.743C599.732 759.981 597.464 762.703 595.424 764.291C590.344 768.248 584.853 771.683 578.738 775.87C595.713 788.308 614.409 794.614 633.22 800.471C652.667 806.525 672.39 799.038 692.86 800.471C660.474 818.52 620.791 816.552 570.218 783.534Z" fill="#FFFCED"/>
<path d="M357.049 629.085C351.996 603.723 341.002 579.487 331.941 555.007C327.361 542.636 321.39 530.689 322.067 517.125C322.719 504.035 323.218 490.829 325.411 477.951C328.039 462.532 331.538 446.88 342.032 434.533C352.33 422.418 363.345 410.878 374.528 399.563C393.678 380.187 415.588 364.235 439.353 351.112C454.24 342.891 469.7 335.4 485.585 329.389C497.929 324.719 511.32 322.801 524.262 319.731C542.435 315.423 560.499 310.529 578.832 307.063C606.234 301.881 634.017 299.548 661.908 300.253C677.192 300.64 692.581 301.146 707.394 306.132C719.158 310.093 731.049 313.726 743.004 317.065C774.846 325.954 801.562 342.444 821.689 369.041C824.251 372.428 827.079 375.719 830.268 378.5C834.217 381.942 838.26 385.874 842.995 387.704C853.542 391.782 864.211 384.721 863.799 374.384C863.53 367.636 859.944 362.25 854.86 357.782C846.954 350.837 839.201 343.718 831.382 336.674C827.546 333.218 824.01 329.336 819.813 326.392C806.76 317.235 793.688 308.069 780.177 299.617C769.493 292.932 757.856 288.188 745.009 287.151C740.865 286.817 736.728 286.212 732.641 285.445C710.799 281.34 689.062 276.559 667.104 273.23C656.011 271.549 644.527 272.496 633.222 272.164C610.427 271.496 587.612 269.774 564.847 270.312C535.768 270.999 506.927 275.088 479.328 284.775C453.877 293.712 428.986 304.2 405.718 317.993C396.357 323.543 388.264 331.309 378.738 336.493C349.269 352.529 322.523 371.85 301.413 398.162C285.173 418.404 273.363 440.993 268.817 466.81C266.56 479.628 265.145 492.59 263.185 506.662C248.357 506.843 234.183 512.422 219.94 518.333C200.864 526.249 185.362 538.541 173.156 554.85C166.752 563.406 162.62 573.716 155.914 581.975C142.726 598.217 140.104 617.118 139.717 636.828C139.317 657.229 144.155 676.892 149.518 696.311C159.461 732.31 176.977 763.557 209.369 784.245C217.108 789.188 225.77 793.368 234.585 795.817C260.881 803.118 287.639 802.127 314.432 798.305C329.115 796.212 340.277 789.726 345.677 775.306C353.495 754.428 361.542 733.803 363.785 711.124C366.546 683.213 362.365 655.796 357.045 629.085H357.049Z" fill="#FFFCED"/>
<path d="M937.036 535.521C931.414 505.596 919.156 479.663 894.107 460.996C882.063 452.021 868.413 446.083 853.326 442.491C857.866 436.309 863.082 430.939 864.462 422.801C862.968 423.192 862.277 423.172 861.886 423.504C843.708 438.941 821.999 445.254 798.88 447.817C779.655 449.948 765.027 442.148 758.087 426.687C767.087 416.309 776.203 406.324 784.708 395.839C792.586 386.127 797.929 374.996 799.548 362.45C799.573 362.243 799.589 362.036 799.595 361.827C799.707 357.266 795.198 353.969 790.77 355.078C790.365 355.18 789.933 355.292 789.468 355.418C788.527 355.673 767.452 362.361 758.788 369.502C743.99 381.698 731.986 395.668 736.977 417.244C737.822 420.896 736.164 423.854 732.779 426.153C709.497 441.965 684.781 453.684 655.911 454.028C645.456 454.152 636.821 450.743 630.895 441.616C629.196 439 629.072 437.26 631.511 434.951C638.703 428.141 645.998 421.383 652.616 414.031C666.478 398.633 674.313 380.543 674.947 359.647C675.193 351.535 674.352 343.311 675.452 335.337C676.08 330.775 674.692 328.332 671.858 325.712C665.447 319.78 659.925 322.022 653.328 326.918C646.923 331.672 641.56 337.974 636.254 344.044C619.22 363.522 610.067 386.327 611.259 412.205C611.737 422.548 609.445 428.897 600.396 434.293C576.525 448.528 552.982 463.193 524.041 464.314C512.845 464.748 502.233 463.452 495.058 453.406C510.328 437.566 526.25 422.648 535.695 402.651C540.866 391.704 542.337 379.905 537.635 368.643C530.116 350.63 507.51 344.843 495.085 360.592C489.819 367.267 484.338 373.863 479.882 381.068C465.37 404.535 461.24 429.228 472.239 455.472C472.874 456.986 472.139 460.09 470.908 461.202C462.794 468.544 454.599 475.836 445.996 482.593C429.073 495.885 411.482 507.936 388.63 507.93C383.498 507.93 378.342 508.304 373.24 507.921C360.114 506.935 347.016 505.622 333.634 504.414C333.577 514.755 333.681 526.519 338.13 538.056C347.884 563.333 357.169 588.791 366.455 614.245C367.989 618.447 370.64 620.242 373.531 620.466C376.093 608.854 378.322 597.471 381.16 586.24C384.42 573.341 392.153 562.781 399.86 552.216C413.703 533.235 430.355 517.237 451.412 506.798C458.963 503.055 468.21 502.509 476.776 501.075C513.442 494.937 544.377 506.248 569.943 532.695C588.021 551.396 603.758 571.714 610.943 597.543C628.562 589.447 646.243 589.796 664.288 596.442C664.883 588.981 665.753 582.252 665.9 575.506C666.503 548.203 675.407 524.292 696.216 506.206C707.523 496.38 719.924 487.481 732.897 480.014C743.01 474.194 754.449 469.611 765.866 467.372C783.311 463.951 800.254 468.254 816.051 476.497C817.557 477.285 819.138 477.931 820.883 478.734C821.433 472.554 821.657 466.987 822.578 461.534C822.863 459.845 825.037 458.474 826.345 456.958C827.837 458.504 830.105 459.823 830.635 461.65C831.382 464.22 830.904 467.168 830.834 469.95C830.567 480.376 831.389 490.055 841.709 496.457C845.793 498.99 849.014 503.249 851.967 507.214C869.539 530.808 875.004 557.992 875.167 586.721C875.194 591.471 876.899 596.497 875.832 600.913C873.189 611.867 869.307 622.518 866.134 633.354C865.552 635.339 865.107 638.159 866.059 639.677C875.202 654.26 883.277 669.314 888.42 687.333C890.698 686.084 892.42 685.295 893.979 684.26C903.605 677.874 911.129 669.636 916.521 659.34C924.916 643.308 928.193 625.745 933.254 608.578C940.243 584.881 941.604 559.802 937.042 535.521H937.036ZM484.805 414.218C486.37 397.457 494.471 383.269 503.176 369.384C506.563 363.979 511.349 361.164 517.772 362.77C524.355 364.416 528.243 369.007 529.828 375.518C532.051 384.663 530.599 393.351 526.038 401.481C516.771 418.002 502.968 430.536 488.849 444.306C484.968 433.865 483.88 424.129 484.805 414.218ZM657.994 340.982C660.63 372.443 652.779 390.415 625.614 414.797C624.295 384.375 636.868 361.172 657.994 340.982ZM787.773 363.759C788.301 364.256 788.828 364.751 789.356 365.248C777.187 380.398 765.017 395.548 752.019 411.729C747.32 391.303 768.318 364.708 787.773 363.759Z" fill="#FFFCED"/>
<path d="M437.095 711.899C469.372 729.394 522.452 726.057 557.342 693.998C572.502 680.067 583.689 663.589 590.851 644.552C598.338 624.654 598.77 604.52 588.787 585.075C578.648 565.326 564.713 548.554 547.649 534.437C526.99 517.348 503.127 512.682 477.027 516.476C458.668 519.145 444.025 528.789 430.459 540.479C401.007 565.86 389.17 598.132 393.419 636.557C394.069 640.898 394.596 645.262 395.389 649.576C400.306 676.353 412.521 698.579 437.095 711.899ZM469.445 613.968C470.967 610.362 476.1 608.279 479.272 605.754C485.909 606.136 491.27 605.844 496.372 606.857C509.967 609.553 511.913 619.327 511.685 630.487C511.596 634.797 509.421 639.188 507.661 643.314C504.248 651.32 498.149 655.559 489.214 655.347C480.495 655.141 475.403 649.682 471.364 642.915C465.83 633.644 465.394 623.564 469.445 613.968Z" fill="#FFFCED"/>
<path d="M816.824 490.952C805.928 486.785 795.245 481.923 784.105 478.573C774.321 475.631 763.684 475.975 754.508 480.262C741.802 486.198 729.209 492.92 717.864 501.103C697.752 515.609 684.316 534.993 682.111 560.508C680.343 580.962 679.856 601.467 682.985 621.874C683.279 623.793 683.972 625.764 684.942 627.443C693.571 642.381 705.577 653.881 721.619 660.275C767.916 678.724 808.155 669.887 843.021 636.233C844.116 635.174 844.442 632.368 843.928 630.764C841.919 624.511 838.575 618.591 837.263 612.23C832.513 589.221 823.603 514.036 822.472 499.716C822.136 495.463 820.899 492.512 816.828 490.954L816.824 490.952ZM763.366 611.843C757.655 617.992 746.757 617.966 741.582 611.135C734.798 602.176 732.973 593.845 738.703 584.107C738.904 583.768 739.053 583.399 739.208 583.035C743.55 572.985 745.795 571.562 755.197 572.901C764.911 574.287 768.882 578.517 770.076 590.431C770.198 597.008 769.707 605.019 763.366 611.843Z" fill="#FFFCED"/>
<path d="M334.729 292.87C335.908 286.731 336.495 279.962 339.568 274.788C360.201 240.059 389.231 215.288 428.68 204.655C461.598 195.783 489.958 206.098 514.976 227.968C518.428 230.986 522.692 233.178 526.811 235.309C532.742 238.376 536.793 235.155 539.328 230.201C541.337 226.275 539.821 222.384 537.251 218.876C532.2 211.986 530.578 204.056 533.341 196.16C543.916 165.938 569.581 155.036 597.439 147.385C607.458 144.634 617.797 149.211 627.472 147.848C639.751 146.118 649.649 149.987 659.817 155.038C662.478 156.359 665.111 157.753 667.681 159.24C677.759 165.066 688.432 169.971 695.117 180.397C701.094 189.719 706.127 199.353 709.615 210.654C705.369 211.073 701.976 211.161 698.683 211.779C691.888 213.056 684.507 213.36 678.553 216.394C672.076 219.693 666.804 225.474 661.262 230.46C652.027 238.771 652.445 249.186 662.234 256.758C664.728 258.687 667.734 259.94 670.303 261.784C683.295 271.107 701.273 271.023 713.961 261.44C716.494 259.527 718.807 257.289 721.464 255.578C729.191 250.608 736.255 245.239 736.375 233.537C749.5 235.988 762.184 237.396 774.28 240.854C790 245.347 803.157 253.587 806.256 271.73C806.892 275.451 807.469 279.294 808.891 282.743C811.022 287.909 813.81 292.814 816.446 297.763C818.991 302.543 822.873 299.894 825.62 298.523C827.15 297.761 828.171 294.403 828.067 292.28C827.867 288.139 826.922 283.994 825.92 279.94C822.35 265.483 818.397 250.779 805.429 241.83C793.417 233.539 780.9 225.402 767.502 219.868C755.633 214.966 742.221 213.845 729.56 210.766C727.754 210.326 725.283 208.517 724.904 206.921C719.765 185.2 708.421 167.475 689.396 155.952C677.239 148.588 663.695 143.457 650.583 137.764C647.062 136.235 642.842 135.746 638.946 135.756C628.352 135.785 617.724 135.907 607.179 136.802C596.19 137.737 584.453 137.57 574.538 141.58C560.54 147.243 547.488 155.658 534.829 164.096C522.802 172.114 514.65 183.664 511.263 198.583C507.842 197.071 505.316 195.907 502.756 194.828C487.849 188.554 472.487 182.854 456.282 182.978C417.212 183.272 385.042 200.4 357.361 226.792C344.75 238.818 335.14 253.232 326.034 268.06C320.463 277.132 318.283 292.781 328.628 302.531C333.178 300.899 333.916 297.076 334.724 292.868L334.729 292.87ZM700.792 252.743C696.823 253.923 692.656 254.734 688.528 255.023C680.177 255.604 671.909 244.55 674.833 236.782C675.342 235.432 677.247 233.836 678.629 233.71C690.635 232.62 702.675 230.14 714.982 233.561C715.025 242.37 709.202 250.241 700.79 252.743H700.792Z" fill="#FFFCED"/>
<path d="M186.405 463.319C186.829 466.987 186.103 470.975 187.283 474.333C190.14 482.461 194.468 490.104 196.933 498.322C198.761 504.416 203.582 502.44 206.971 503.098C208.34 503.363 210.995 499.09 212.364 496.508C213.212 494.909 212.992 492.59 212.825 490.63C211.808 478.762 210.905 466.875 209.516 455.047C207.185 435.182 206.412 415.345 209.964 395.568C211.146 388.982 213.104 382.535 214.708 376.025L216.448 376.33C216.813 378.046 217.43 379.752 217.503 381.48C218.294 400.407 232.003 412.552 249.816 413.332C259.917 413.774 268.1 410.903 273.758 401.068C282.133 386.511 280.004 371.748 276.658 356.855C275.236 350.532 270.677 346.112 264.842 342.638C256.836 337.87 248.571 335.749 239.304 337.75C239.104 335.72 238.746 334.506 238.909 333.371C241.105 318.174 246.028 304.098 255.886 292.015C260.228 286.693 264.338 281.183 268.554 275.757C267.868 274.871 267.183 273.986 266.498 273.098C262.501 275.629 258.342 277.939 254.543 280.735C242.813 289.37 232.174 299.049 227.166 313.3C224.077 322.093 220.466 330.865 218.856 339.959C217.685 346.573 214.257 350.644 209.766 354.581C187.532 374.073 179.004 398.761 182.118 427.785C183.391 439.644 185.04 451.464 186.409 463.313L186.405 463.319ZM254.046 356.637C255.939 359.162 258.492 361.199 260.345 363.748C265.437 370.753 264.373 379.98 258.044 385.669C254.205 389.119 251.047 388.666 248.577 383.86C243.728 374.423 241.362 364.308 240.732 353.721C246.165 351.227 250.476 351.873 254.046 356.637Z" fill="#FFFCED"/>
<path d="M861.976 323.362C882.772 335.733 891.57 355.161 894.712 377.948C895.085 380.66 894.054 383.67 893.249 386.417C891.218 393.353 888.444 400.12 887.061 407.168C886.619 409.422 889.044 413.181 891.234 414.658C892.558 415.551 896.145 413.727 898.347 412.476C900.159 411.445 901.62 409.603 902.904 407.873C909.799 398.59 916.167 389.549 914.508 376.561C911.665 354.294 901.31 336.265 885.219 321.555C877.457 314.458 867.369 311.646 854.764 314.517C857.605 318.101 859.204 321.712 861.972 323.358L861.976 323.362Z" fill="#FFFCED"/>
<path d="M835.06 509.055C834.412 538.47 846.76 606.788 854.377 616.705C867.479 593.121 855.842 526.813 835.06 509.055Z" fill="#FFFCED"/>
</svg>
