<svg width="256" height="366" viewBox="0 0 256 366" fill="none" xmlns="http://www.w3.org/2000/svg">
<g clip-path="url(#clip0_74_1363)">
<path d="M182.022 9.147C185.004 12.849 186.524 17.844 189.565 27.834L256 246.074C231.046 233.124 204.263 224.056 176.574 219.183L133.318 73.008C132.973 71.8421 132.26 70.8193 131.285 70.0925C130.31 69.3657 129.126 68.9739 127.911 68.9759C126.695 68.9778 125.512 69.3732 124.54 70.1031C123.567 70.833 122.857 71.8581 122.516 73.025L79.784 219.11C51.9702 223.96 25.0635 233.042 0 246.04L66.76 27.783C69.811 17.811 71.337 12.824 74.319 9.129C76.9516 5.86719 80.3757 3.33403 84.265 1.771C88.67 0 93.885 0 104.314 0H151.997C162.44 0 167.661 0 172.071 1.774C175.963 3.34081 179.389 5.87928 182.021 9.147H182.022Z" fill="white"/>
<path d="M189.972 256.46C179.02 265.824 157.16 272.211 131.98 272.211C101.076 272.211 75.1732 262.59 68.3002 249.651C65.8422 257.066 65.2912 265.554 65.2912 270.975C65.2912 270.975 63.6722 297.598 82.1892 316.115C82.1892 306.5 89.9842 298.705 99.5992 298.705C116.079 298.705 116.059 313.083 116.045 324.748L116.044 325.789C116.044 343.494 126.864 358.672 142.254 365.069C139.885 360.193 138.658 354.842 138.666 349.422C138.666 332.536 148.579 326.249 160.101 318.942C169.268 313.128 179.454 306.668 186.473 293.71C190.254 286.729 192.228 278.914 192.215 270.975C192.215 265.915 191.429 261.038 189.972 256.46Z" fill="#FF5D01"/>
</g>
<defs>
<clipPath id="clip0_74_1363">
<rect width="256" height="366" fill="white"/>
</clipPath>
</defs>
</svg>
