<svg width="1000" height="1000" viewBox="0 0 1000 1000" fill="none" xmlns="http://www.w3.org/2000/svg">
<g clip-path="url(#clip0_60_1337)">
<path d="M0 0H840C882.435 0 923.131 16.8571 953.137 46.8629C983.143 76.8687 1000 117.565 1000 160V840C1000 882.435 983.143 923.131 953.137 953.137C923.131 983.143 882.435 1000 840 1000H160C117.565 1000 76.8687 983.143 46.8629 953.137C16.8571 923.131 0 882.435 0 840L0 0Z" fill="#663399"/>
<path d="M358.1 920C293.87 919.94 254.24 883.77 255 817.21V648.82C255 615.08 264.88 589.42 284.64 571.86C320.13 537.67 402.47 535.59 437.23 572.38C458.65 591.27 466.73 629.86 464.81 665.87H391.09C391.65 651.72 390.9 630.29 382.58 622.22C371.77 607.59 343.22 609.31 335.67 624.54C331.03 632.8 328.71 645.03 328.71 661.21V807.39C328.71 838.04 339.36 853.54 360.67 853.88C370.63 853.88 378.2 850.26 383.35 843.03C390.54 834.45 391.66 815.45 391.08 801.71H464.8C469.84 871.78 428.48 920.87 358.09 920H358.1ZM592.14 920C520.97 920.98 489.13 870.34 491.1 801.71H560.69C558.76 831.63 569.04 858.88 593.68 856.98C604.67 856.98 612.41 853.54 616.88 846.65C625.38 834.06 626.97 797.7 614.82 783.63C606.33 770.08 575.79 758.12 559.66 750.06C536.63 739.04 520.05 725.96 509.91 710.8C487.04 677.16 489.16 603.32 521.25 573.4C552.43 536.48 633.86 534.78 665.07 572.63C684.32 592.14 692.73 630.53 691.1 665.86H624.08C624.65 651.34 623.28 627.91 617.64 619.37C613.69 612.14 606.21 608.52 595.22 608.52C575.63 608.52 565.84 620.23 565.84 643.64C566.05 668.5 575.74 678.7 598.32 689.09C627.56 700.45 664.74 719.85 678.22 743.33C718.42 814.87 690.84 924.15 592.13 919.98L592.14 920ZM816.9 920C745.73 920.98 713.89 870.34 715.86 801.71H785.45C783.52 831.63 793.8 858.88 818.44 856.98C829.43 856.98 837.17 853.54 841.64 846.65C850.14 834.06 851.73 797.7 839.58 783.63C831.09 770.08 800.55 758.12 784.42 750.06C761.39 739.04 744.81 725.96 734.67 710.8C711.8 677.16 713.92 603.32 746.01 573.4C777.19 536.48 858.62 534.78 889.83 572.63C909.08 592.14 917.49 630.53 915.86 665.86H848.84C849.41 651.34 848.04 627.91 842.4 619.37C838.45 612.14 830.97 608.52 819.98 608.52C800.39 608.52 790.6 620.23 790.6 643.64C790.81 668.5 800.5 678.7 823.08 689.09C852.32 700.45 889.5 719.85 902.98 743.33C943.18 814.87 915.6 924.15 816.89 919.98L816.9 920Z" fill="white"/>
</g>
<defs>
<clipPath id="clip0_60_1337">
<rect width="1000" height="1000" fill="white"/>
</clipPath>
</defs>
</svg>
