<svg width="21" height="32" viewBox="0 0 21 32" fill="none" xmlns="http://www.w3.org/2000/svg">
<g clip-path="url(#clip0_13_1480)">
<path d="M5.2509 32C8.14832 32 10.4999 29.6106 10.4999 26.6666V21.3333H5.2509C2.35348 21.3333 0.00195312 23.7226 0.00195312 26.6666C0.00195312 29.6106 2.35348 32 5.2509 32Z" fill="#0ACF83"/>
<path d="M0.00195312 16C0.00195312 13.056 2.35348 10.6667 5.2509 10.6667H10.4999V21.3333H5.2509C2.35348 21.3333 0.00195312 18.944 0.00195312 16Z" fill="#A259FF"/>
<path d="M0.00244141 5.33333C0.00244141 2.38933 2.35397 0 5.25139 0H10.5003V10.6667H5.25139C2.35397 10.6667 0.00244141 8.27733 0.00244141 5.33333Z" fill="#F24E1E"/>
<path d="M10.5 0H15.749C18.6464 0 20.9979 2.38933 20.9979 5.33333C20.9979 8.27733 18.6464 10.6667 15.749 10.6667H10.5V0Z" fill="#FF7262"/>
<path d="M20.9979 16C20.9979 18.944 18.6464 21.3333 15.749 21.3333C12.8515 21.3333 10.5 18.944 10.5 16C10.5 13.056 12.8515 10.6667 15.749 10.6667C18.6464 10.6667 20.9979 13.056 20.9979 16Z" fill="#1ABCFE"/>
</g>
<defs>
<clipPath id="clip0_13_1480">
<rect width="21" height="32" fill="white"/>
</clipPath>
</defs>
</svg>
