<svg width="224" height="233" viewBox="0 0 224 233" fill="none" xmlns="http://www.w3.org/2000/svg">
<path d="M38.1882 122.933C30.5592 129.183 23.8192 126.079 16.9912 123.418C13.7142 122.141 10.1302 121.589 6.96623 120.108C4.55023 118.978 1.28822 117.297 0.641216 115.178C-1.49078 108.199 1.79823 105.425 8.95323 108.178C17.6732 111.533 26.1792 115.461 34.6792 119.358C36.1312 120.023 37.0862 121.772 38.1892 122.933H38.1882Z" fill="#FFFCED"/>
<path d="M47.9097 93.7754C46.5167 91.2914 45.1578 88.7615 43.6988 86.2915C40.6188 81.0775 37.3607 75.9644 34.4307 70.6684C33.0387 68.1524 31.2358 64.6354 34.4928 62.8764C36.2818 61.9104 40.3307 62.8554 41.9827 64.4074C44.9307 67.1764 47.0477 70.9333 49.1147 74.5063C51.2457 78.1893 52.9587 82.1215 54.7537 85.9905C56.8017 90.4035 55.9127 93.1383 51.9477 94.3003C50.9237 94.6003 49.6447 94.0304 47.9087 93.7754H47.9097Z" fill="#FFFCED"/>
<path d="M12.1635 165.876C11.1745 163.672 10.6185 162.432 9.85449 160.729C13.1045 156.019 18.6705 153.499 23.8695 150.636C27.6225 148.569 31.6205 146.754 35.7255 145.589C38.1465 144.902 40.9885 145.701 44.2165 145.86C41.0115 151.293 39.2125 156.414 33.4555 158.101C26.0255 160.278 20.2645 167.468 12.1625 165.877L12.1635 165.876Z" fill="#FFFCED"/>
<path d="M199.578 126.514C198.301 129.849 197 133.175 195.751 136.52C193.501 142.55 190.984 148.376 186.235 153.011C183.064 156.106 179.154 156.713 175.14 156.687C173.999 156.68 172.488 155.177 171.799 153.983C168.506 148.275 167.648 141.956 167.679 135.467C167.687 133.746 167.692 132.019 167.574 130.304C167.087 123.202 170.111 117.527 174.783 112.549C182.121 104.731 190.674 98.6169 200.512 94.3029C204.054 92.7499 206.908 93.3689 209.97 95.8649C215.406 100.296 218.147 105.867 219.43 112.657C222.157 127.092 223.407 141.62 223.306 156.29C223.251 164.213 223.461 172.143 223.18 180.056C223.001 185.105 221.318 189.86 217.984 193.779C208.02 205.489 197.396 216.58 182.661 222.17C174.852 225.132 166.582 226.918 158.46 228.999C153.102 230.372 147.685 231.735 142.209 232.38C130.755 233.728 121.333 229.082 113.217 221.378C99.4364 208.296 89.2264 192.733 81.3004 175.547C77.3294 166.937 73.3124 158.367 71.9074 148.883C70.8904 142.017 72.0364 135.68 76.2344 129.861C82.5554 121.1 90.6554 114.335 99.4054 108.24C102.309 106.217 105.521 104.62 108.334 102.487C113.481 98.5857 119.394 96.5847 125.606 96.0187C129.288 95.6827 133.126 96.8618 136.865 97.5248C137.594 97.6538 138.59 98.4338 138.778 99.1058C140.001 103.471 142.163 107.958 141.899 112.276C141.329 121.631 136.806 128.637 127.538 132.599C122.371 134.808 118.068 138.981 113.236 142.048C109.535 144.397 105.638 146.443 101.781 148.538C100.266 149.361 98.6824 150.146 99.5174 152.181C100.404 154.342 102.198 153.566 103.694 152.962C111.857 149.666 118.684 144.207 125.808 139.228C126.904 138.462 128.115 137.86 129.479 137.061C130.057 140.54 130.422 143.468 131.043 146.34C132.957 155.197 140.462 159.351 148.907 156.005C152.066 154.753 154.871 152.635 157.908 151.045C161.485 149.173 162.932 149.842 164.342 153.419C167.697 161.929 172.172 164.934 181.42 162.663C187.424 161.189 191.072 157.841 193.922 152.788C197.79 145.929 199.589 138.416 201.204 130.842C201.477 129.563 200.946 128.114 200.786 126.743C200.383 126.665 199.981 126.587 199.578 126.509V126.514Z" fill="#FFFCED"/>
<path d="M130.309 91.3622C114.427 90.9512 103.268 100.878 90.856 109.028C90.28 103.053 89.776 97.3043 89.162 91.5663C87.921 79.9793 86.169 68.4272 85.463 56.8092C84.669 43.7582 84.658 30.6512 84.627 17.5682C84.62 14.6122 85.474 11.4312 86.755 8.74618C88.912 4.22518 93.642 3.74513 97.944 3.21713C103.232 2.56813 107.091 5.17814 110.531 9.08114C116.184 15.4951 117.946 23.3642 119.446 31.3202C122.118 45.4952 124.532 59.7193 127.078 73.9183C128.103 79.6333 129.191 85.3362 130.309 91.3602V91.3622Z" fill="#FFFCED"/>
<path d="M142.78 94.8385C139.299 93.7985 136.208 92.9734 133.199 91.9124C132.332 91.6064 131.121 90.6774 131.055 89.9444C130.247 81.0134 129.386 72.0764 129.015 63.1204C128.584 52.7224 128.56 42.3056 128.489 31.8956C128.451 26.3646 128.258 20.7785 128.93 15.3155C129.522 10.5025 131.2 5.84649 135.455 2.68049C141.268 -1.64451 148.045 -0.676408 152.23 5.15559C155.816 10.1526 157.482 15.9394 159.045 21.7574C163.8 39.4624 163.538 57.7324 164.956 75.8074C165.031 76.7584 163.993 78.1324 163.091 78.7684C158.1 82.2874 152.867 85.4734 147.977 89.1234C145.807 90.7434 144.249 93.1835 142.78 94.8385Z" fill="#FFFCED"/>
<path d="M135.322 143.255C135.233 142.883 135.161 142.505 135.052 142.139C133.756 137.808 133.881 134.232 138.519 131.538C142.267 129.361 143.999 125.403 145.212 121.192C147.171 114.39 147.969 107.755 144.929 101.023C144.514 100.104 145.023 98.3977 145.666 97.4307C149.197 92.1197 154.296 88.5568 159.73 85.4478C166.06 81.8258 172.485 78.4506 179.984 77.9236C186.097 77.4936 191.732 80.2618 193.986 84.9268C195.892 88.8728 195.171 91.2147 191.443 93.2757C181.117 98.9837 171.82 105.819 165.889 116.402C163.647 120.403 162.327 124.626 162.26 129.224C162.184 134.5 160.53 139.37 158.225 144.015C155.273 149.962 147.278 152.381 142.127 152.031C139.189 151.831 137.326 149.813 136.296 147.149C135.817 145.911 135.644 144.555 135.332 143.253C135.329 143.253 135.326 143.254 135.324 143.255H135.322Z" fill="#FFFCED"/>
</svg>
