<svg width="250" height="250" viewBox="0 0 250 250" fill="none" xmlns="http://www.w3.org/2000/svg">
<g clip-path="url(#clip0_32_5)">
<path d="M207.26 0H42.74C19.1354 0 0 19.1354 0 42.74V207.26C0 230.865 19.1354 250 42.74 250H207.26C230.865 250 250 230.865 250 207.26V42.74C250 19.1354 230.865 0 207.26 0Z" fill="#330000"/>
<path d="M122.11 66.1504H84.7L41.73 181.77H75.21L80.79 164.5H123.77L129.35 181.77H163.85L122.12 66.1504H122.11ZM102.27 135.65H90.1L102.27 97.9604L114.44 135.65H102.27Z" fill="#FF9A00"/>
<path d="M199.1 90.7402H168.12V181.77H199.1V90.7402Z" fill="#FF9A00"/>
<path d="M200.12 74.2799C200.21 82.7699 193.34 88.7699 183.62 88.6899C173.89 88.7699 167.03 82.7699 167.12 74.2799C167.03 65.7899 173.9 59.7899 183.62 59.8699C193.35 59.7899 200.21 65.7899 200.12 74.2799Z" fill="#FF9A00"/>
</g>
<defs>
<clipPath id="clip0_32_5">
<rect width="250" height="250" fill="white"/>
</clipPath>
</defs>
</svg>
