<svg width="1000" height="1000" viewBox="0 0 1000 1000" fill="none" xmlns="http://www.w3.org/2000/svg">
<g clip-path="url(#clip0_61_1340)">
<path d="M0 0H1000V1000H0V0Z" fill="#F0DB4F"/>
<path d="M779.701 990.95C708.201 990.95 662.001 956.85 639.451 912.3L702.151 876C718.651 902.95 740.101 922.75 778.051 922.75C809.951 922.75 830.301 906.8 830.301 884.8C830.301 858.4 809.401 849.05 774.201 833.65L754.951 825.4C699.401 801.75 662.551 772.05 662.551 709.35C662.551 651.6 706.551 607.6 775.301 607.6C824.251 607.6 859.451 624.65 884.751 669.2L824.801 707.7C811.601 684.05 797.301 674.7 775.301 674.7C752.751 674.7 738.451 689 738.451 707.7C738.451 730.8 752.751 740.15 785.751 754.45L805.001 762.7C870.451 790.75 907.301 819.35 907.301 883.7C907.301 953 852.851 990.95 779.701 990.95Z" fill="#323330"/>
<path d="M482.65 990.95C421.05 990.95 385.3 959.05 367.15 920.55L429.85 882.6C441.95 904.05 452.95 922.2 479.35 922.2C504.65 922.2 520.6 912.3 520.6 873.8V612H597.6V874.9C597.6 954.65 550.85 990.95 482.65 990.95Z" fill="#323330"/>
</g>
<defs>
<clipPath id="clip0_61_1340">
<rect width="1000" height="1000" fill="white"/>
</clipPath>
</defs>
</svg>
