<svg width="33" height="32" viewBox="0 0 33 32" fill="none" xmlns="http://www.w3.org/2000/svg">
<path d="M10.2246 26.7446V12.3957H5.43606V26.7446H10.2251H10.2246ZM7.83131 10.437C9.50081 10.437 10.5402 9.33515 10.5402 7.95818C10.5089 6.54983 9.50081 5.47876 7.86306 5.47876C6.22418 5.47876 5.15381 6.54983 5.15381 7.95805C5.15381 9.33502 6.19281 10.4368 7.79993 10.4368H7.83093L7.83131 10.437ZM12.8751 26.7446H17.6632V18.7324C17.6632 18.3041 17.6944 17.8747 17.8209 17.5688C18.1669 16.7116 18.9548 15.8243 20.2779 15.8243C22.0102 15.8243 22.7036 17.1401 22.7036 19.0692V26.7446H27.4916V18.5174C27.4916 14.1102 25.1296 12.0593 21.9792 12.0593C19.3963 12.0593 18.2619 13.4972 17.6317 14.4765H17.6636V12.3962H12.8753C12.9378 13.7423 12.8749 26.7451 12.8749 26.7451L12.8751 26.7446Z" fill="#F4F1D2"/>
</svg>
