<svg width="398" height="401" viewBox="0 0 398 401" fill="none" xmlns="http://www.w3.org/2000/svg">
<path d="M360.324 268.426C359.194 264.31 357.221 260.426 355.356 255.777C351.255 258.768 347.777 261.307 344.296 263.841C342.156 265.4 340.148 267.203 337.843 268.462C327.8 273.946 316.82 274.715 305.754 273.921C299.852 273.497 294.031 271.929 288.734 270.977C287.837 274.713 287.316 278.829 285.849 282.574C283.274 289.145 279.282 294.926 273.105 298.628C269.616 300.718 268.252 300.677 266.717 298.103C270.556 293.143 274.666 288.362 278.164 283.167C281.665 277.966 282.889 272.498 279.214 266.415C273.708 257.299 267.396 248.908 259.76 241.494C258.499 240.27 257.585 238.686 256.31 237.48C254.973 236.217 253.528 234.937 251.897 234.144C247.159 231.839 242.555 233.733 238.234 235.462C236.723 236.067 235.149 238.524 235.019 240.242C234.348 249.14 231.592 257.269 227.646 265.216C220.483 279.642 208.988 289.297 194.795 296.105C188.41 299.168 181.408 299.899 174.472 300.394C162.623 301.242 151.119 299.596 141.001 292.965C126.685 283.583 119.631 269.891 118.476 252.956C118.406 251.933 117.52 250.966 117.015 249.972C116.79 250.098 116.565 250.222 116.34 250.346C116.695 253.954 117.064 257.56 117.401 261.168C118.014 267.758 119.33 274.384 119.029 280.933C118.643 289.348 118.124 297.892 114.663 305.878C111.77 312.556 109.105 319.334 106.485 326.125C106.167 326.949 106.427 328.38 106.98 329.096C115.057 339.543 122.107 350.83 132.258 359.588C136.839 363.54 140.637 368.5 145.515 371.991C156.3 379.707 166.988 387.709 180.073 391.505C187.932 393.785 195.516 397.108 203.456 398.981C209.752 400.466 216.41 401.07 222.889 400.963C231.739 400.817 240.6 399.867 249.397 398.782C253.973 398.218 258.37 396.283 262.942 395.56C273.899 393.83 284.23 390.156 293.963 385.113C300.523 381.713 306.591 377.267 312.574 372.874C318.86 368.256 325.22 363.59 330.77 358.153C341.888 347.26 349.267 333.565 357.464 320.516C360.561 308.551 366.585 297.095 363.485 284.067C362.254 278.895 361.729 273.543 360.324 268.426ZM214.113 321.697C213.463 323.5 212.587 325.165 212.298 326.926C211.914 329.27 210.44 330.246 208.532 329.842C207.473 329.619 206.372 328.132 205.877 326.965C204.201 323.015 205.817 319.762 208.479 316.826C212.212 312.708 215.765 308.333 221.514 306.926C222.917 306.583 224.519 306.405 225.884 306.741C227.013 307.019 228.754 308.179 228.742 308.927C228.726 310.035 227.603 311.383 226.593 312.17C224.077 314.129 221.359 315.829 218.331 317.902C226.736 324.06 235.992 327.182 245.306 330.083C254.934 333.08 264.699 329.373 274.834 330.083C258.8 339.019 239.152 338.044 214.113 321.697Z" fill="#FFFCED"/>
<path d="M108.571 245.228C106.069 232.671 100.625 220.671 96.1393 208.551C93.872 202.426 90.9153 196.511 91.2508 189.795C91.5736 183.314 91.8205 176.776 92.9065 170.4C94.2074 162.766 95.94 155.017 101.136 148.903C106.234 142.905 111.688 137.191 117.225 131.589C126.706 121.996 137.554 114.098 149.32 107.6C156.691 103.53 164.345 99.8213 172.21 96.8452C178.322 94.5331 184.951 93.5833 191.36 92.0636C200.357 89.9305 209.301 87.5077 218.378 85.7916C231.945 83.2258 245.7 82.0708 259.509 82.4198C267.076 82.6114 274.696 82.8621 282.03 85.3307C287.855 87.2917 293.742 89.0905 299.661 90.7434C315.426 95.1448 328.654 103.309 338.618 116.477C339.887 118.154 341.287 119.784 342.866 121.16C344.821 122.865 346.823 124.811 349.167 125.717C354.389 127.737 359.672 124.241 359.468 119.123C359.334 115.782 357.559 113.115 355.042 110.903C351.127 107.464 347.289 103.94 343.417 100.452C341.519 98.7411 339.768 96.819 337.69 95.3616C331.227 90.828 324.755 86.2895 318.066 82.1048C312.776 78.7953 307.014 76.4461 300.653 75.9328C298.602 75.7675 296.553 75.4681 294.53 75.088C283.716 73.056 272.954 70.6885 262.082 69.0406C256.59 68.2083 250.904 68.677 245.307 68.5126C234.021 68.1821 222.725 67.3293 211.453 67.5957C197.056 67.936 182.777 69.9602 169.112 74.7564C156.511 79.1811 144.187 84.374 132.667 91.2032C128.032 93.9508 124.026 97.796 119.309 100.363C104.719 108.302 91.4763 117.868 81.0245 130.896C72.9839 140.918 67.1367 152.102 64.886 164.884C63.7688 171.23 63.0678 177.648 62.0975 184.615C54.756 184.704 47.7382 187.467 40.6864 190.393C31.2418 194.312 23.5668 200.399 17.5232 208.473C14.3527 212.71 12.307 217.814 8.98677 221.903C2.45707 229.945 1.1591 239.303 0.967563 249.062C0.769221 259.162 3.16487 268.898 5.82012 278.512C10.7427 296.336 19.4153 311.806 35.4527 322.049C39.2844 324.496 43.573 326.566 47.9375 327.779C60.9571 331.393 74.2051 330.903 87.4706 329.011C94.7402 327.974 100.267 324.763 102.94 317.624C106.811 307.286 110.795 297.075 111.906 285.846C113.273 272.027 111.203 258.452 108.569 245.228H108.571Z" fill="#FFFCED"/>
<path d="M395.728 198.904C392.944 184.087 386.875 171.248 374.473 162.005C368.51 157.562 361.752 154.622 354.282 152.844C356.53 149.783 359.112 147.124 359.796 143.095C359.056 143.288 358.714 143.279 358.52 143.443C349.52 151.086 338.772 154.212 327.325 155.481C317.807 156.536 310.564 152.674 307.128 145.019C311.584 139.881 316.098 134.937 320.308 129.746C324.209 124.937 326.855 119.426 327.656 113.214C327.668 113.112 327.676 113.009 327.679 112.906C327.735 110.648 325.502 109.015 323.31 109.565C323.11 109.615 322.896 109.671 322.665 109.733C322.199 109.859 311.765 113.171 307.476 116.706C300.149 122.744 294.205 129.661 296.677 140.343C297.095 142.152 296.274 143.616 294.598 144.755C283.071 152.583 270.834 158.386 256.54 158.556C251.363 158.617 247.088 156.929 244.154 152.41C243.313 151.115 243.252 150.254 244.459 149.11C248.02 145.739 251.632 142.393 254.908 138.753C261.771 131.129 265.651 122.173 265.965 111.827C266.086 107.81 265.67 103.739 266.215 99.7904C266.526 97.5319 265.838 96.3222 264.435 95.0252C261.261 92.088 258.527 93.1984 255.261 95.6222C252.09 97.9761 249.434 101.096 246.807 104.102C238.374 113.745 233.842 125.036 234.432 137.849C234.669 142.97 233.534 146.113 229.054 148.785C217.235 155.833 205.579 163.093 191.25 163.648C185.707 163.863 180.453 163.222 176.9 158.248C184.46 150.405 192.343 143.019 197.02 133.119C199.58 127.698 200.308 121.857 197.98 116.281C194.258 107.362 183.065 104.497 176.913 112.295C174.306 115.599 171.592 118.865 169.386 122.433C162.201 134.051 160.157 146.277 165.602 159.27C165.916 160.02 165.553 161.557 164.943 162.107C160.926 165.743 156.868 169.353 152.609 172.698C144.23 179.28 135.52 185.246 124.206 185.243C121.666 185.243 119.113 185.428 116.587 185.239C110.088 184.75 103.603 184.1 96.9771 183.502C96.9489 188.622 97.0004 194.447 99.2035 200.159C104.033 212.674 108.63 225.278 113.227 237.881C113.987 239.961 115.299 240.85 116.731 240.961C117.999 235.212 119.103 229.576 120.508 224.015C122.122 217.629 125.95 212.401 129.767 207.17C136.62 197.772 144.865 189.851 155.29 184.682C159.029 182.829 163.607 182.559 167.848 181.849C186.002 178.81 201.318 184.41 213.976 197.505C222.927 206.763 230.718 216.823 234.276 229.612C242.999 225.603 251.753 225.776 260.687 229.066C260.982 225.372 261.413 222.041 261.486 218.701C261.784 205.183 266.192 193.344 276.495 184.39C282.094 179.525 288.234 175.118 294.656 171.422C299.663 168.54 305.327 166.271 310.98 165.162C319.617 163.469 328.006 165.599 335.827 169.68C336.572 170.07 337.355 170.39 338.219 170.788C338.492 167.728 338.603 164.972 339.059 162.272C339.199 161.436 340.276 160.757 340.923 160.007C341.662 160.772 342.785 161.425 343.048 162.329C343.417 163.602 343.181 165.061 343.146 166.439C343.014 171.601 343.421 176.393 348.53 179.563C350.553 180.817 352.147 182.925 353.609 184.888C362.309 196.57 365.015 210.029 365.096 224.253C365.109 226.605 365.953 229.093 365.425 231.28C364.117 236.703 362.194 241.977 360.623 247.342C360.335 248.325 360.115 249.721 360.586 250.472C365.113 257.692 369.111 265.146 371.657 274.067C372.785 273.449 373.638 273.058 374.41 272.546C379.176 269.384 382.901 265.305 385.571 260.208C389.727 252.27 391.35 243.574 393.855 235.075C397.315 223.343 397.989 210.926 395.731 198.904H395.728ZM171.824 138.845C172.599 130.547 176.609 123.522 180.919 116.647C182.596 113.972 184.966 112.578 188.146 113.373C191.405 114.188 193.33 116.461 194.115 119.685C195.215 124.213 194.497 128.514 192.238 132.539C187.65 140.719 180.816 146.925 173.826 153.742C171.904 148.573 171.366 143.752 171.824 138.845ZM257.571 102.586C258.876 118.162 254.989 127.06 241.54 139.132C240.886 124.07 247.112 112.581 257.571 102.586ZM321.826 113.863C322.088 114.109 322.348 114.354 322.61 114.6C316.585 122.101 310.56 129.602 304.124 137.613C301.798 127.5 312.194 114.332 321.826 113.863Z" fill="#FFFCED"/>
<path d="M148.202 286.23C164.183 294.892 190.464 293.24 207.738 277.367C215.244 270.47 220.783 262.311 224.328 252.886C228.036 243.034 228.249 233.066 223.307 223.438C218.287 213.66 211.388 205.356 202.939 198.367C192.71 189.906 180.896 187.596 167.973 189.474C158.884 190.796 151.633 195.571 144.917 201.358C130.335 213.925 124.474 229.903 126.578 248.927C126.9 251.077 127.161 253.237 127.553 255.373C129.988 268.631 136.035 279.635 148.202 286.23ZM164.219 237.743C164.973 235.958 167.514 234.927 169.084 233.676C172.371 233.866 175.025 233.721 177.551 234.223C184.282 235.558 185.245 240.397 185.133 245.922C185.089 248.056 184.012 250.23 183.14 252.273C181.451 256.237 178.431 258.336 174.007 258.231C169.69 258.129 167.169 255.426 165.169 252.075C162.429 247.485 162.214 242.495 164.219 237.743Z" fill="#FFFCED"/>
<path d="M336.21 176.837C330.814 174.774 325.525 172.366 320.01 170.708C315.166 169.251 309.899 169.421 305.356 171.544C299.065 174.483 292.83 177.811 287.213 181.863C277.255 189.045 270.603 198.642 269.511 211.274C268.636 221.402 268.395 231.554 269.944 241.658C270.09 242.607 270.433 243.584 270.913 244.415C275.186 251.811 281.13 257.504 289.072 260.67C311.994 269.804 331.917 265.429 349.179 248.767C349.722 248.243 349.883 246.853 349.629 246.059C348.634 242.963 346.978 240.032 346.329 236.883C343.977 225.491 339.566 188.266 339.006 181.176C338.839 179.07 338.227 177.609 336.211 176.838L336.21 176.837ZM309.742 236.691C306.914 239.735 301.518 239.723 298.956 236.34C295.597 231.905 294.694 227.78 297.531 222.959C297.63 222.791 297.704 222.608 297.781 222.428C299.931 217.452 301.042 216.747 305.697 217.41C310.507 218.097 312.473 220.191 313.064 226.09C313.124 229.346 312.881 233.313 309.742 236.691Z" fill="#FFFCED"/>
<path d="M97.5194 78.7641C98.1028 75.7249 98.3935 72.3735 99.9151 69.8116C110.131 52.6171 124.504 40.3529 144.035 35.0881C160.333 30.6954 174.375 35.8028 186.761 46.6309C188.471 48.1252 190.581 49.2103 192.621 50.2652C195.557 51.7839 197.563 50.1893 198.818 47.7363C199.813 45.7927 199.062 43.8659 197.79 42.1294C195.289 38.7177 194.486 34.7916 195.854 30.8822C201.09 15.9191 213.797 10.5212 227.59 6.73326C232.55 5.37112 237.669 7.63731 242.459 6.96256C248.539 6.106 253.439 8.02148 258.473 10.5221C259.791 11.1765 261.095 11.8667 262.367 12.6027C267.357 15.4874 272.641 17.916 275.951 23.0777C278.91 27.6931 281.402 32.4632 283.129 38.0585C281.027 38.2656 279.347 38.3094 277.716 38.6156C274.352 39.2476 270.698 39.3982 267.75 40.9003C264.543 42.5337 261.933 45.3961 259.189 47.8647C254.616 51.9793 254.824 57.136 259.67 60.8851C260.905 61.8398 262.394 62.4602 263.665 63.3732C270.098 67.9895 278.999 67.9476 285.281 63.203C286.535 62.256 287.68 61.1478 288.996 60.3009C292.821 57.8401 296.319 55.1818 296.378 49.3881C302.877 50.6015 309.156 51.2987 315.146 53.0109C322.928 55.2354 329.443 59.3149 330.977 68.2976C331.292 70.1401 331.578 72.0429 332.282 73.7502C333.337 76.3082 334.717 78.7369 336.022 81.187C337.282 83.5535 339.204 82.2418 340.564 81.5632C341.322 81.186 341.827 79.5234 341.776 78.4724C341.677 76.4219 341.209 74.3695 340.713 72.3628C338.946 65.205 336.988 57.9247 330.568 53.4941C324.62 49.3892 318.423 45.3601 311.789 42.6203C305.913 40.1935 299.272 39.6384 293.004 38.1138C292.11 37.8961 290.887 37.0006 290.699 36.2102C288.155 25.456 282.538 16.6803 273.119 10.975C267.099 7.32906 260.394 4.78857 253.902 1.96999C252.159 1.2126 250.069 0.970552 248.14 0.975413C242.895 0.989997 237.633 1.05024 232.412 1.49359C226.971 1.95639 221.16 1.87385 216.251 3.8592C209.321 6.6632 202.858 10.8294 196.591 15.0072C190.636 18.977 186.6 24.6956 184.923 32.0818C183.229 31.3332 181.979 30.7568 180.711 30.223C173.331 27.1166 165.725 24.2942 157.701 24.3555C138.357 24.5013 122.43 32.9814 108.725 46.0486C102.481 52.0027 97.7227 59.139 93.2143 66.4806C90.456 70.9724 89.3767 78.7203 94.4986 83.5476C96.7513 82.7396 97.1169 80.8468 97.5165 78.7632L97.5194 78.7641ZM278.761 58.8969C276.796 59.4812 274.733 59.8829 272.689 60.0258C268.554 60.3136 264.461 54.8407 265.908 50.9944C266.16 50.3265 267.103 49.5361 267.788 49.4738C273.732 48.9342 279.693 47.7061 285.786 49.3998C285.808 53.7613 282.925 57.6582 278.76 58.8969H278.761Z" fill="#FFFCED"/>
<path d="M24.083 163.156C24.293 164.972 23.9333 166.946 24.5176 168.609C25.9322 172.633 28.0751 176.417 29.2953 180.486C30.2004 183.503 32.5873 182.525 34.2655 182.85C34.9431 182.982 36.2576 180.866 36.9353 179.588C37.3553 178.796 37.2464 177.648 37.1638 176.678C36.6601 170.801 36.2129 164.916 35.5255 159.06C34.3714 149.225 33.9884 139.403 35.7472 129.611C36.3325 126.35 37.3018 123.159 38.0962 119.936L38.9576 120.086C39.1384 120.936 39.4437 121.781 39.4797 122.637C39.8715 132.007 46.6589 138.021 55.4783 138.407C60.4796 138.625 64.531 137.204 67.3321 132.335C71.4788 125.127 70.4248 117.818 68.7681 110.444C68.0642 107.314 65.8066 105.125 62.918 103.405C58.9541 101.045 54.8619 99.9945 50.2738 100.985C50.1746 99.9799 49.9976 99.379 50.0783 98.8171C51.1653 91.2927 53.6028 84.3235 58.4835 78.3412C60.6332 75.7064 62.6681 72.9781 64.7556 70.2918C64.4163 69.8533 64.0769 69.4148 63.7376 68.9753C61.7591 70.2286 59.6998 71.3721 57.8185 72.7566C52.0112 77.0317 46.7435 81.8239 44.2642 88.8796C42.7348 93.2334 40.9469 97.5764 40.1496 102.079C39.5701 105.354 37.8726 107.369 35.649 109.318C24.6411 118.969 20.4185 131.192 21.9605 145.562C22.5906 151.434 23.4073 157.286 24.0849 163.152L24.083 163.156ZM57.5725 110.336C58.5098 111.587 59.7737 112.595 60.6915 113.857C63.2126 117.325 62.6856 121.894 59.552 124.71C57.6513 126.418 56.0879 126.194 54.8648 123.815C52.4643 119.142 51.2927 114.134 50.9806 108.893C53.6708 107.658 55.8049 107.978 57.5725 110.336Z" fill="#FFFCED"/>
<path d="M358.566 93.8616C368.862 99.9869 373.218 109.606 374.773 120.888C374.958 122.23 374.448 123.721 374.049 125.081C373.044 128.515 371.67 131.865 370.985 135.355C370.767 136.471 371.967 138.332 373.051 139.063C373.707 139.506 375.483 138.602 376.573 137.983C377.47 137.473 378.194 136.561 378.83 135.704C382.243 131.108 385.396 126.632 384.575 120.201C383.167 109.177 378.04 100.25 370.073 92.9672C366.23 89.4535 361.236 88.0612 354.995 89.4827C356.401 91.257 357.193 93.045 358.564 93.8597L358.566 93.8616Z" fill="#FFFCED"/>
<path d="M345.238 185.801C344.917 200.364 351.031 234.189 354.802 239.099C361.289 227.422 355.527 194.593 345.238 185.801Z" fill="#FFFCED"/>
</svg>
