<svg width="31" height="32" viewBox="0 0 31 32" fill="none" xmlns="http://www.w3.org/2000/svg">
<path d="M2.75994 1.38909C0.636909 1.49522 0.141537 1.95511 0 3.2994V22.7916C0.0289093 23.8503 0.132851 24.2919 0.495374 24.7727L4.88297 30.5036C5.73288 31.7682 6.36394 32.0634 7.71368 31.9894L28.8379 30.7159C30.2474 30.5474 30.7272 30.1093 30.8547 28.5226V6.48325C30.8495 6.10579 30.7403 5.88459 30.1824 5.45734L23.6364 0.858449C22.5842 0.0788268 21.7764 -0.0972624 19.9565 0.0447982C19.9565 0.0447982 4.88297 1.28296 2.75994 1.38909Z" fill="#FFFCED"/>
<path d="M3.36858 2.12228C1.34753 2.22333 0.875949 2.66122 0.741211 3.94122V22.5012C0.768732 23.5092 0.867681 23.9298 1.21279 24.3875L5.38963 29.8444C6.19871 31.0484 6.79946 31.3295 8.08437 31.2591L28.1938 30.0465C29.5357 29.886 29.9924 29.4689 30.1138 27.9581V6.9728C30.1088 6.6134 30.0049 6.40277 29.4738 5.99596L23.2423 1.61701C22.2406 0.874678 21.4716 0.707011 19.7391 0.842277C19.7391 0.842277 5.38963 2.02122 3.36858 2.12228Z" fill="black"/>
<path d="M28.1263 26.4423L28.0926 8.6907C28.0053 7.98224 27.8607 7.71187 27.0147 7.74754L7.91578 8.85912C7.04646 8.93531 6.82475 9.19651 6.8042 9.9707V27.7896C6.88113 28.5489 7.08157 28.8476 7.94946 28.9686L26.8126 27.9581C27.7713 27.8673 28.0778 27.5565 28.1263 26.4423Z" fill="#FFFCED"/>
<path d="M3.57047 4.37914C3.13258 3.97493 3.41229 3.70538 4.31152 3.70545L20.1094 2.56019C20.4139 2.53348 21.7599 2.39178 22.3326 2.89704C22.3326 2.89704 24.421 4.44651 25.3305 5.05282C26.2399 5.65914 26.1052 5.79387 24.8589 5.79387C23.6126 5.79387 7.94942 6.8044 7.94942 6.8044C6.98941 6.87967 6.52979 6.80543 5.96205 6.29914C5.96205 6.29914 4.00836 4.78335 3.57047 4.37914Z" fill="#FFFCED"/>
<path d="M10.1055 13.2044L11.5876 13.3054V24.9938L10.7118 25.2296C10.1511 25.4219 10.0255 25.6447 10.0718 26.2065L14.4844 26.0044C15.1487 25.8889 15.4512 25.7121 15.697 24.9265L13.8444 24.5223V15.697L19.8739 25.0275C20.8498 26.2555 21.7058 26.2728 23.6802 25.3307V12.2612L24.556 12.1265C25.0434 12.0124 25.1734 11.7829 25.0949 11.0149L20.9518 11.2507C20.2249 11.441 20.0547 11.7117 20.0423 12.3959L21.6255 12.5981V20.817L15.5286 11.5538L11.0823 11.857C10.2558 12.0605 10.0828 12.3851 10.1055 13.2044Z" fill="black"/>
</svg>
