<svg width="59" height="48" viewBox="0 0 59 48" fill="none" xmlns="http://www.w3.org/2000/svg">
<g filter="url(#filter0_d_72_1356)">
<path fill-rule="evenodd" clip-rule="evenodd" d="M18.1153 15.7612C17.9341 15.6865 17.9011 15.7573 17.9138 16.0011C18.3482 17.727 19.2827 18.3319 22.2662 18.7197C25.0729 18.9291 28.956 17.8402 31.374 16.0011C33.7919 14.162 35.2148 11.3409 35.0815 8.84472C34.783 5.26546 30.9709 3.88721 27.1828 4.00716C23.3946 4.12711 20.493 5.52639 20.493 5.52639C17.0314 6.86754 15.2267 7.94934 12.1912 10.324C9.67226 12.3345 8.2015 14.4819 8 17.3604C8.26684 19.0776 9.426 20.6787 11.4131 22.2779C12.5784 23.2158 13.7054 23.9977 14.6777 24.6722L14.6778 24.6723C15.3635 25.1479 15.9721 25.5702 16.463 25.9561C14.7406 26.7549 13.8505 27.265 12.433 28.3149C10.1364 30.1294 9.46537 31.1622 9.3702 33.0325C9.6547 35.1994 10.2309 35.9673 12.5136 35.991C14.165 36.1216 16.4734 34.785 16.5856 34.5518C17.0664 34.4287 20.7751 30.9936 18.8004 26.196L21.2184 24.7967C19.8482 28.9546 21.2912 32.003 22.8707 32.073C23.8254 32.1547 24.4392 31.5861 25.8529 28.075C25.7158 29.7647 25.6897 30.6087 26.135 31.1135C26.752 31.7379 27.0819 31.5864 27.6664 31.1935C28.5517 30.6712 29.8484 27.9671 32.4621 22.238C32.7954 23.8915 32.998 24.8002 33.7919 25.9161L30.7292 29.5943C30.5486 29.8402 30.5054 29.9877 30.568 30.2739C30.7114 30.7322 30.9915 30.8301 31.6561 30.8736C32.2975 30.8576 32.8438 30.7916 33.3083 30.6289C35.9307 29.5725 36.8723 28.089 35.6457 25.3164C36.6365 23.8959 37.2073 22.9652 38.2652 20.9586C38.5328 22.534 38.7524 23.3257 39.4339 24.3569C38.6685 24.9497 38.3809 25.2636 37.9025 25.9961C37.3336 26.8672 37.0055 27.4859 36.9353 28.4748C37.0063 29.3533 37.9831 29.5143 37.9831 29.5143C38.221 29.5876 41.1794 28.7034 41.9325 26.5558C42.0369 25.531 41.9714 25.0541 41.6101 24.3969C42.2409 24.0968 42.7883 23.955 44.7535 23.8372C46.29 23.8648 47.0085 24.0276 48.0581 24.5568C49.6502 25.4669 50.0255 26.1108 50.1134 27.4354C50.0158 28.3687 49.6365 28.6786 48.7778 29.3802C48.7403 29.4108 48.7019 29.4421 48.6626 29.4743C48.5892 29.5522 48.5675 29.6101 48.6223 29.6742C48.6545 29.7119 48.7029 29.7142 48.7029 29.7142C48.8614 29.7336 48.9361 29.7199 49.1059 29.6742C50.5325 29.1027 50.948 28.1044 51 26.7157C50.8683 25.112 49.5895 23.3788 47.6551 22.7977C44.765 21.9295 43.4828 22.3967 41.1668 23.2775C40.0662 21.3528 39.7673 20.1948 40.7235 17.7602C40.5068 17.4376 40.2554 17.3731 39.7966 17.3205C39.1812 17.2498 38.3469 17.428 38.0637 17.6803C37.8388 18.3143 37.7396 18.6627 37.5801 19.2795C36.6536 21.273 36.0887 22.2849 35.0412 23.9971C34.1353 22.1576 34.0835 21.0916 34.9203 19.1195C34.6176 18.6805 34.3332 18.5919 33.7919 18.5598C33.2016 18.5249 32.5184 18.7363 32.18 19.0396C32.0933 19.4777 32.0401 19.704 31.9382 20.0791C29.9334 24.7552 29.1426 26.4099 27.8679 28.8746C27.857 28.8846 27.8468 28.8961 27.8366 28.9075C27.8008 28.9478 27.7658 28.9872 27.7067 28.9546C27.6237 28.1405 27.9439 26.917 28.7149 23.9708C28.7664 23.7741 28.8199 23.5698 28.8754 23.3574C28.7912 22.9924 28.7142 22.8903 28.432 22.7577C28.0865 22.5953 27.7078 22.6626 27.4246 22.8777C27.8794 20.5838 26.5783 20.119 26.135 20.159C25.7723 20.159 23.6242 20.6562 22.2662 22.7177C20.4982 23.6529 19.5732 24.1783 17.9944 25.1165C17.8453 24.7908 16.8773 23.9592 15.6891 23.0776C15.2335 22.7126 14.7812 22.3574 14.4031 22.0604L14.403 22.0604L14.4029 22.0603L14.4027 22.0601C13.9892 21.7353 13.6644 21.4803 13.5211 21.3584C13.4991 21.3386 13.4729 21.3153 13.4428 21.2887C12.8648 20.7765 10.8804 19.0181 11.224 16.8807C11.7123 14.1785 13.1827 12.542 17.9138 9.6843C21.7486 7.68422 23.8318 6.88346 27.4246 6.60585C31.1825 6.47952 33.0262 7.80524 32.7442 9.6843C32.6842 11.4218 31.8979 12.5229 29.6008 14.6418C27.3037 16.7607 22.2662 17.2805 22.2662 17.2805C20.3797 17.4359 19.586 16.9966 18.3168 15.9212C18.2238 15.8288 18.1805 15.7955 18.1153 15.7612ZM25.8529 21.8781C26.2426 21.7857 26.3264 21.8796 26.3365 22.198C25.5939 25.0552 24.0394 28.9546 23.717 29.2744C23.3946 29.5943 23.2362 29.5628 23.0722 29.1945C22.4274 26.3959 23.717 22.8777 25.8529 21.8781ZM17.4302 26.7957C13.1176 29.5155 11.4831 30.9892 12.3121 33.3524C14.8913 34.4318 18.7601 30.3139 17.4302 26.7957ZM34.3561 27.0755L32.2203 29.5143C32.7084 29.5661 33.3076 29.16 33.7516 28.6347C34.1742 28.1349 34.3183 27.6254 34.3561 27.0755ZM40.0384 25.1965C38.9575 26.1616 38.5707 26.7906 38.3861 28.115C39.0367 27.9648 39.3914 27.8409 39.8772 27.0355C40.2686 26.1231 40.2663 25.7427 40.0384 25.1965Z" fill="#F997C7"/>
</g>
<defs>
<filter id="filter0_d_72_1356" x="0" y="0" width="59" height="48" filterUnits="userSpaceOnUse" color-interpolation-filters="sRGB">
<feFlood flood-opacity="0" result="BackgroundImageFix"/>
<feColorMatrix in="SourceAlpha" type="matrix" values="0 0 0 0 0 0 0 0 0 0 0 0 0 0 0 0 0 0 127 0" result="hardAlpha"/>
<feOffset dy="4"/>
<feGaussianBlur stdDeviation="4"/>
<feColorMatrix type="matrix" values="0 0 0 0 0 0 0 0 0 0 0 0 0 0 0 0 0 0 1 0"/>
<feBlend mode="normal" in2="BackgroundImageFix" result="effect1_dropShadow_72_1356"/>
<feBlend mode="normal" in="SourceGraphic" in2="effect1_dropShadow_72_1356" result="shape"/>
</filter>
</defs>
</svg>
