<svg width="363" height="363" viewBox="0 0 363 363" fill="none" xmlns="http://www.w3.org/2000/svg">
<g filter="url(#filter0_d_1_13)">
<path d="M78.5853 224.332C78.5853 244.857 61.8181 261.625 41.2929 261.625C20.7677 261.625 4.00055 244.857 4.00055 224.332C4.00055 203.807 20.7677 187.04 41.2929 187.04H78.5853V224.332Z" fill="#E01E5A"/>
<path d="M97.3754 224.332C97.3754 203.807 114.143 187.04 134.668 187.04C155.193 187.04 171.96 203.807 171.96 224.332V317.708C171.96 338.233 155.193 355 134.668 355C114.143 355 97.3754 338.233 97.3754 317.708V224.332Z" fill="#E01E5A"/>
<path d="M134.668 74.5847C114.143 74.5847 97.3756 57.8176 97.3756 37.2924C97.3756 16.7671 114.143 0 134.668 0C155.193 0 171.96 16.7671 171.96 37.2924V74.5847H134.668Z" fill="#36C5F0"/>
<path d="M134.668 93.3753C155.194 93.3753 171.961 110.142 171.961 130.668C171.961 151.193 155.194 167.96 134.668 167.96H41.2929C20.7677 167.96 4.00055 151.193 4.00055 130.668C4.00055 110.142 20.7677 93.3753 41.2929 93.3753H134.668Z" fill="#36C5F0"/>
<path d="M284.417 130.668C284.417 110.142 301.184 93.3753 321.709 93.3753C342.234 93.3753 359.001 110.142 359.001 130.668C359.001 151.193 342.234 167.96 321.709 167.96H284.417V130.668Z" fill="#2EB67D"/>
<path d="M265.625 130.668C265.625 151.193 248.858 167.96 228.333 167.96C207.808 167.96 191.04 151.193 191.04 130.668V37.2923C191.04 16.7671 207.808 0 228.333 0C248.858 0 265.625 16.7671 265.625 37.2923V130.668Z" fill="#2EB67D"/>
<path d="M228.333 280.415C248.859 280.415 265.626 297.182 265.626 317.708C265.626 338.233 248.859 355 228.333 355C207.808 355 191.041 338.233 191.041 317.708V280.415H228.333Z" fill="#ECB22E"/>
<path d="M228.335 261.625C207.81 261.625 191.043 244.857 191.043 224.332C191.043 203.807 207.81 187.04 228.335 187.04H321.711C342.236 187.04 359.003 203.807 359.003 224.332C359.003 244.857 342.236 261.625 321.711 261.625H228.335Z" fill="#ECB22E"/>
</g>
<defs>
<filter id="filter0_d_1_13" x="0.000549316" y="0" width="363.002" height="363" filterUnits="userSpaceOnUse" color-interpolation-filters="sRGB">
<feFlood flood-opacity="0" result="BackgroundImageFix"/>
<feColorMatrix in="SourceAlpha" type="matrix" values="0 0 0 0 0 0 0 0 0 0 0 0 0 0 0 0 0 0 127 0" result="hardAlpha"/>
<feOffset dy="4"/>
<feGaussianBlur stdDeviation="2"/>
<feColorMatrix type="matrix" values="0 0 0 0 0 0 0 0 0 0 0 0 0 0 0 0 0 0 0.25 0"/>
<feBlend mode="normal" in2="BackgroundImageFix" result="effect1_dropShadow_1_13"/>
<feBlend mode="normal" in="SourceGraphic" in2="effect1_dropShadow_1_13" result="shape"/>
</filter>
</defs>
</svg>
